<?xml version="1.0" standalone="no"?>
<!DOCTYPE svg PUBLIC "-//W3C//DTD SVG 1.1//EN" "http://www.w3.org/Graphics/SVG/1.1/DTD/svg11.dtd">
<svg xmlns="http://www.w3.org/2000/svg">
<defs >
<font id="Kosugi" horiz-adv-x="512" ><font-face
    font-family="MotoyaLCedar"
    units-per-em="1024"
    panose-1="2 11 3 9 0 0 0 0 0 75"
    ascent="901"
    descent="-123"
    alphabetic="0" />
<glyph unicode=" " />
<glyph unicode="!" d="M197 774H315L288 179H224L197 774ZM203 4V112H311V4H203Z" />
<glyph unicode="&quot;" d="M109 774H214L188 555H135L109 774ZM299 774H403L378 555H325L299 774Z" />
<glyph unicode="#" d="M126 295L138 509H50L55 590H143L153 774H225L215 590H322L332 774H404L394 590H475L471 509H389L377 295H463L458 214H372L360 4H289L300 214H193L182 4H110L121 214H38L42 295H126ZM198 295H305L317 509H210L198 295Z" />
<glyph unicode="$" d="M224 78V385L178 407Q44 473 44 589Q44 713 149 761Q182 776 224 780V860H290V779Q455 756 466 571H381Q366 686 290 704V441L324 424Q403 385 431 355Q480 302 480 217Q480 72 371 18Q336 1 290 -3V-82H224V0Q53 24 34 239H123Q131 110
224 78ZM290 71Q400 83 400 213Q400 295 290 352V71ZM224 706Q124 690 124 594Q124 523 216 477L224 474V706Z" />
<glyph unicode="%" d="M137 781Q197 781 218 722Q233 682 233 585Q233 489 218 448Q197 389 135 389Q73 389 52 448Q37 489 37 582Q37 682 52 722Q73 781 137 781ZM135 723Q103 723 103 586Q103 447 134 447Q163 447 168 574Q165 682 157 704Q151 723 135 723ZM379
389Q440 389 461 330Q475 289 475 193Q475 97 461 56Q440 -3 378 -3Q315 -3 295 56Q280 97 280 190Q280 291 295 330Q316 389 379 389ZM377 331Q346 331 346 194Q346 55 377 55Q405 55 410 181Q407 291 400 312Q393 331 377 331ZM68 4L381 774H444L131 4H68Z" />
<glyph unicode="&amp;" d="M154 421L126 470Q72 562 72 629Q72 781 227 781Q374 781 374 633Q374 545 245 409L359 214Q375 290 375 425H448Q446 219 406 135L482 4H398L363 65Q301 -3 221 -3Q149 -3 98 36Q31 88 31 177Q31 288 154 421ZM208 472Q298 573 298
630Q298 705 226 705Q148 705 148 629Q148 575 186 510L208 472ZM193 355Q113 268 113 189Q113 136 145 105Q175 76 219 76Q278 76 322 135L193 355Z" />
<glyph unicode="&apos;" d="M201 774H312L283 555H230L201 774Z" />
<glyph unicode="(" d="M471 -30L419 -82Q182 126 182 389Q182 652 419 860L471 808Q254 636 254 389Q254 143 471 -30Z" />
<glyph unicode=")" d="M41 -30Q258 144 258 389Q258 636 41 808L93 860Q330 652 330 389Q330 127 93 -82L41 -30Z" />
<glyph unicode="*" d="M239 357L87 219L38 289L228 389L38 489L87 559L239 421L213 664H299L272 421L424 559L473 489L283 389L473 289L424 219L272 357L299 115H213L239 357Z" />
<glyph unicode="+" d="M59 353V425H220V694H292V425H453V353H292V84H220V353H59Z" />
<glyph unicode="," d="M92 -82L67 -46Q70 -44 78 -39Q140 2 140 38Q140 46 133 46Q132 46 126 45Q124 44 119 44Q54 44 54 111Q54 181 123 181Q198 181 198 90Q198 -12 92 -82Z" />
<glyph unicode="-" d="M59 353V425H452V353H59Z" />
<glyph unicode="." d="M128 109Q158 109 180 85Q199 64 199 37Q199 4 175 -17Q154 -36 126 -36Q94 -36 73 -12Q54 9 54 37Q54 68 78 90Q99 109 128 109Z" />
<glyph unicode="/" d="M472 834L108 -82L40 -54L405 860L472 834Z" />
<glyph unicode="0" d="M262 781Q468 781 468 389Q468 -3 258 -3Q44 -3 44 386Q44 634 125 728Q171 781 262 781ZM253 700Q141 700 141 390Q141 78 255 78Q371 78 371 386Q371 700 253 700Z" />
<glyph unicode="1" d="M116 561V657Q205 675 237 774H332V4H235V634Q178 568 116 561Z" />
<glyph unicode="2" d="M48 11V91Q215 282 294 398Q363 500 363 583Q363 642 327 676Q301 700 265 700Q173 700 163 546H57Q74 781 268 781Q353 781 405 732Q465 677 465 595Q465 484 338 311Q284 238 153 91H465V11H48Z" />
<glyph unicode="3" d="M45 219H149Q155 73 253 73Q304 73 336 111Q373 154 373 223Q373 368 241 368Q212 368 175 364V453Q214 449 242 449Q361 449 361 582Q361 706 264 706Q181 706 166 567H68Q82 782 266 782Q358 782 409 724Q456 668 456 591Q456 454 341
407Q468 362 468 218Q468 116 407 54Q351 -3 252 -3Q56 -3 45 219Z" />
<glyph unicode="4" d="M31 185V267L301 774H398V265H481V185H398V4H310V185H31ZM118 265H310V627L118 265Z" />
<glyph unicode="5" d="M45 212H148Q154 77 249 77Q372 77 372 266Q372 442 276 442Q173 442 156 312H68V767H435V687H156V444Q211 517 293 517Q372 517 417 455Q467 385 467 263Q467 -4 247 -4Q60 -4 45 212Z" />
<glyph unicode="6" d="M143 437Q206 521 298 521Q365 521 406 475Q468 404 468 268Q468 135 405 61Q351 -3 261 -3Q44 -3 44 366Q44 782 285 782Q436 782 464 584H368Q354 706 282 706Q159 706 143 437ZM141 337Q141 73 259 73Q371 73 371 264Q371 445 277 445Q201
445 141 337Z" />
<glyph unicode="7" d="M59 679V767H466V666L213 4H105L373 679H59Z" />
<glyph unicode="8" d="M172 415Q57 463 57 586Q57 674 118 732Q171 781 256 781Q353 781 407 717Q455 662 455 586Q455 463 340 415Q468 362 468 217Q468 117 409 54Q354 -3 256 -3Q145 -3 89 71Q44 132 44 217Q44 362 172 415ZM254 702Q147 702 147 581Q147 525
179 492Q211 459 256 459Q304 459 334 493T365 582Q365 702 254 702ZM254 374Q200 374 164 323Q138 286 138 221Q138 76 258 76Q374 76 374 225Q374 295 339 334Q303 374 254 374Z" />
<glyph unicode="9" d="M369 342Q301 259 214 259Q147 259 106 305Q44 376 44 511Q44 645 107 718Q161 782 251 782Q468 782 468 413Q468 -3 228 -3Q76 -3 48 195H144Q159 73 231 73Q353 73 369 342ZM371 442Q371 706 251 706Q139 706 139 515Q139 335 234 335Q310
335 371 442Z" />
<glyph unicode=":" d="M257 546Q287 546 308 523Q326 503 326 476Q326 445 303 424Q283 406 256 406Q225 406 204 429Q186 449 186 477Q186 507 209 528Q229 546 257 546ZM257 137Q287 137 308 114Q326 94 326 67Q326 36 303 15Q283 -3 256 -3Q225 -3 204 20Q186
40 186 68Q186 98 209 119Q229 137 257 137Z" />
<glyph unicode=";" d="M225 -115L199 -78Q267 -34 267 2Q267 5 263 9V10Q263 10 262 10Q261 8 261 8L254 9Q253 9 250 8Q247 6 244 6Q224 6 202 29Q184 48 184 72Q184 99 206 119Q226 137 253 137Q327 137 327 49Q327 -48 225 -115ZM257 546Q287 546 308 523Q326
503 326 476Q326 445 303 424Q283 406 256 406Q225 406 204 429Q186 449 186 477Q186 507 209 528Q229 546 257 546Z" />
<glyph unicode="&lt;" d="M465 645L148 389L465 134V41L33 389L465 737V645Z" />
<glyph unicode="=" d="M59 448V520H452V448H59ZM59 258V330H452V258H59Z" />
<glyph unicode="&gt;" d="M47 645V737L479 389L47 41V134L364 389L47 645Z" />
<glyph unicode="?" d="M309 4H201V112H309V4ZM296 199H216V239Q216 324 244 386Q264 428 332 500Q377 548 377 596Q377 696 263 696Q194 696 164 659Q138 627 136 544H44Q49 781 260 781Q345 781 399 740Q468 688 468 595Q468 541 437 498Q421 476 345 401Q295
346 296 235V199Z" />
<glyph unicode="@" d="M300 223Q264 158 217 158Q134 158 134 302Q134 468 181 568Q208 625 258 625Q304 625 318 559L321 609H374L342 260Q340 246 340 245Q340 223 358 223Q376 223 394 283Q416 362 416 453Q416 570 381 633Q335 717 269 717Q175 717 127 590Q96
509 96 370Q96 241 136 158Q183 62 260 62Q320 62 386 161L434 123Q354 -3 257 -3Q162 -3 100 89Q34 187 34 380Q34 576 100 678Q169 782 270 782Q359 782 422 689Q478 605 478 457Q478 329 442 247Q400 153 345 153Q305 153 300 223ZM257 560Q230 560 214 505Q192
426 192 329V302Q193 229 221 229Q262 229 280 323Q297 411 297 489Q297 560 257 560Z" />
<glyph unicode="A" d="M347 227H165L117 4H27L211 781H301L485 4H395L347 227ZM330 306L256 647L182 306H330Z" />
<glyph unicode="B" d="M40 11V767H209Q349 767 398 721Q459 665 459 583Q459 451 333 405Q478 365 478 214Q478 125 417 65Q361 11 244 11H40ZM129 93H228Q389 93 389 223Q389 362 218 362H129V93ZM129 444H212Q370 444 370 576Q370 639 330 665Q299 685 220 685H129V444Z"
/>
<glyph unicode="C" d="M465 560H370Q355 697 271 697Q125 697 125 379Q125 82 265 82Q356 82 384 235H479Q438 -3 273 -3Q34 -3 34 385Q34 561 92 671Q150 782 272 782Q441 782 465 560Z" />
<glyph unicode="D" d="M40 11V767H189Q478 767 478 389Q478 203 399 96Q337 11 203 11H40ZM129 96H197Q297 96 342 166T387 392Q387 682 195 682H129V96Z" />
<glyph unicode="E" d="M40 11V767H478V682H129V440H422V355H129V96H478V11H40Z" />
<glyph unicode="F" d="M40 4V767H478V687H129V430H431V350H129V4H40Z" />
<glyph unicode="G" d="M478 577H382Q368 697 277 697Q125 697 125 397Q125 78 275 78Q389 78 389 207V332H268V416H478V178Q478 122 435 69Q378 -3 278 -3Q34 -3 34 396Q34 565 94 672Q156 782 284 782Q448 782 478 577Z" />
<glyph unicode="H" d="M40 4V774H129V439H383V774H472V4H383V354H129V4H40Z" />
<glyph unicode="I" d="M210 4V774H301V4H210Z" />
<glyph unicode="J" d="M27 223H127Q141 82 255 82Q383 82 383 262V774H472V257Q472 -3 249 -3Q131 -3 72 82Q44 122 27 223Z" />
<glyph unicode="K" d="M262 477L485 4H377L206 393L129 276V4H40V774H129V411L354 774H459L262 477Z" />
<glyph unicode="L" d="M40 11V774H131V99H485V11H40Z" />
<glyph unicode="M" d="M37 4V774H172L256 178L340 774H475V4H396V705L294 4H218L116 705V4H37Z" />
<glyph unicode="N" d="M40 4V774H145L383 170V774H472V4H367L129 608V4H40Z" />
<glyph unicode="O" d="M260 781Q478 781 478 389Q478 -3 256 -3Q34 -3 34 386Q34 781 260 781ZM254 696Q125 696 125 388Q125 82 256 82Q387 82 387 385Q387 696 254 696Z" />
<glyph unicode="P" d="M40 4V767H231Q368 767 419 717Q481 656 481 566Q481 350 248 350H129V4H40ZM129 432H226Q390 432 390 560Q390 616 365 646Q334 685 234 685H129V432Z" />
<glyph unicode="Q" d="M436 127L492 60L445 -3L396 58Q342 -3 256 -3Q34 -3 34 389Q34 781 256 781Q478 781 478 387Q478 223 436 127ZM372 205Q387 278 387 385Q387 696 256 696Q125 696 125 389Q125 82 256 82Q309 82 341 126L233 261L278 318L372 205Z" />
<glyph unicode="R" d="M40 4V767H246Q473 767 473 569Q473 425 310 387Q369 366 395 324Q427 267 449 141L461 86Q473 22 478 4H380Q370 59 351 179Q321 350 210 354H129V4H40ZM129 435H212Q382 435 382 569Q382 686 232 686H129V435Z" />
<glyph unicode="S" d="M34 239H135Q147 79 264 79Q318 79 352 114Q388 151 388 207Q388 304 279 354L178 401Q43 463 43 589Q43 682 114 736Q172 781 254 781Q443 781 462 571H365Q346 699 245 699Q132 699 132 593Q132 519 216 480L330 427Q479 359 479 217Q479
108 410 46Q354 -3 258 -3Q57 -3 34 239Z" />
<glyph unicode="T" d="M27 682V767H485V682H301V4H210V682H27Z" />
<glyph unicode="U" d="M40 774H129V222Q129 81 256 81Q383 81 383 222V774H472V217Q472 -4 256 -4Q40 -4 40 217V774Z" />
<glyph unicode="V" d="M304 4H208L27 774H119L256 138L393 774H485L304 4Z" />
<glyph unicode="W" d="M256 582L169 4H101L20 774H100L143 229L223 774H288L368 229L411 774H491L410 4H342L256 582Z" />
<glyph unicode="X" d="M256 502L370 774H464L301 411L485 4H388L256 318L124 4H27L211 411L48 774H142L256 502Z" />
<glyph unicode="Y" d="M301 339V4H211V339L27 774H120L256 429L391 774H485L301 339Z" />
<glyph unicode="Z" d="M34 11V103L375 682H45V767H475V675L129 96H478V11H34Z" />
<glyph unicode="[" d="M472 775H265V3H472V-69H193V847H472V775Z" />
<glyph unicode="\" d="M298 339V254H475V182H298V4H213V182H37V254H213V339L197 377H37V449H166L27 774H117L255 429L394 774H485L345 449H475V377H314L298 339Z" />
<glyph unicode="]" d="M41 775V847H320V-69H41V3H248V775H41Z" />
<glyph unicode="^" d="M310 901L411 805L380 769L256 845L133 769L102 805L202 901H310Z" />
<glyph unicode="_" d="M0 -123V-51H512V-123H0Z" />
<glyph unicode="`" d="M394 793L374 751L119 827L163 901L394 793Z" />
<glyph unicode="a" d="M383 335V370Q383 468 268 468Q185 468 169 399H63Q87 547 268 547Q465 547 465 361V4H383V85Q304 -3 203 -3Q120 -3 74 48Q37 88 37 145Q37 262 163 310Q228 335 383 335ZM383 274Q244 270 195 249Q122 218 122 149Q122 71 205 71Q274 71
327 117Q383 165 383 202V274Z" />
<glyph unicode="b" d="M47 4V774H132V455Q190 546 281 546Q363 546 414 485Q475 411 475 283Q475 -3 283 -3Q190 -3 132 81V4H47ZM132 306V221Q132 165 167 123Q208 74 273 74Q387 74 387 267Q387 469 268 469Q216 469 180 432Q132 382 132 306Z" />
<glyph unicode="c" d="M466 375H374Q344 474 263 474Q128 474 128 275Q128 82 268 82Q355 82 381 205H472Q441 3 267 3Q151 3 92 87Q40 162 40 284Q40 399 92 470Q153 553 264 553Q429 553 466 375Z" />
<glyph unicode="d" d="M465 4H380V81Q322 -3 228 -3Q37 -3 37 283Q37 411 98 485Q149 546 231 546Q322 546 380 455V774H465V4ZM380 221V306Q380 392 323 441Q289 469 242 469Q125 469 125 267Q125 74 239 74Q304 74 345 123Q380 165 380 221Z" />
<glyph unicode="e" d="M125 256Q135 66 265 66Q363 66 382 182H472Q445 -4 271 -4Q182 -4 128 42Q40 116 40 274Q40 402 98 477Q154 550 256 550Q389 550 443 436Q466 386 470 256H125ZM129 332H379Q363 474 256 474Q151 474 129 332Z" />
<glyph unicode="f" d="M86 452V531H210V655Q207 766 325 767H421V688H352Q294 689 295 634V531H426V452H295V4H210V452H86Z" />
<glyph unicode="g" d="M385 499Q434 541 492 546V461Q453 461 423 449Q441 413 441 375Q441 298 383 256Q331 218 256 218Q236 218 205 223Q161 214 161 192Q161 169 256 154Q472 120 472 4Q472 -123 252 -123Q34 -123 34 -2Q34 78 137 116Q81 143 81 177Q81 219
149 248Q66 294 66 379Q66 445 115 493Q169 546 259 546Q333 546 385 499ZM228 96Q114 76 114 13Q114 -52 242 -52Q392 -52 392 10Q392 54 319 76Q245 99 228 96ZM257 475Q205 475 175 445Q146 417 146 379Q146 337 180 311Q211 289 255 289Q361 289 361 382Q361
475 257 475Z" />
<glyph unicode="h" d="M47 4V774H132V448Q205 546 306 546Q465 546 465 366V4H380V357Q380 467 294 467Q235 467 193 430Q132 376 132 310V4H47Z" />
<glyph unicode="i" d="M212 4V539H300V4H212ZM307 774V672H205V774H307Z" />
<glyph unicode="j" d="M147 -123V-44H190Q248 -44 263 -33Q277 -21 278 27V539H366V34Q367 -61 335 -95Q304 -123 215 -123H147ZM373 774V672H271V774H373Z" />
<glyph unicode="k" d="M132 311L344 539H463L262 342L479 4H369L205 287L132 216V4H47V774H132V311Z" />
<glyph unicode="l" d="M212 4V774H300V4H212Z" />
<glyph unicode="m" d="M478 4H396V411Q396 474 365 474Q340 474 320 446Q297 412 297 382V4H215V401Q215 474 188 474Q165 474 141 441T116 376V4H34V539H116V477Q158 546 213 546Q266 546 283 480Q324 546 379 546Q478 546 478 406V4Z" />
<glyph unicode="n" d="M47 4V539H132V447Q205 546 306 546Q465 546 465 366V4H380V357Q380 467 294 467Q235 467 193 430Q132 376 132 309V4H47Z" />
<glyph unicode="o" d="M260 546Q368 546 428 460Q475 393 475 272Q475 131 412 62Q353 -3 256 -3Q37 -3 37 276Q37 546 260 546ZM254 467Q125 467 125 271Q125 76 256 76Q387 76 387 271Q387 467 254 467Z" />
<glyph unicode="p" d="M47 -123V539H132V462Q190 546 281 546Q363 546 414 487Q475 418 475 295Q475 22 283 22Q190 22 132 100V-123H47ZM132 313V239Q132 186 167 146Q208 99 274 99Q387 99 387 280Q387 469 268 469Q201 469 165 416Q132 366 132 313Z" />
<glyph unicode="q" d="M465 -123H380V100Q322 22 229 22Q37 22 37 295Q37 418 98 487Q149 546 231 546Q322 546 380 462V539H465V-123ZM380 239V313Q380 366 347 416Q311 469 244 469Q125 469 125 280Q125 99 238 99Q304 99 345 146Q380 186 380 239Z" />
<glyph unicode="r" d="M124 4V539H209V464Q276 545 388 546V459Q223 463 209 337V4H124Z" />
<glyph unicode="s" d="M53 164H156Q169 73 273 73Q369 73 369 146Q369 189 299 219L199 261Q67 317 67 401Q67 470 128 513Q174 546 251 546Q412 546 446 387H347Q334 470 246 470Q157 470 157 405Q157 365 238 331L330 292Q408 259 429 234Q459 198 459 146Q459
68 394 28Q345 -3 270 -3Q162 -3 111 46Q73 84 53 164Z" />
<glyph unicode="t" d="M95 452V531H208V712H293V531H417V452H293V154Q293 108 304 99Q317 90 352 90H408V11H327Q255 11 229 35Q208 58 208 132V452H95Z" />
<glyph unicode="u" d="M465 539V4H380V95Q307 -3 206 -3Q47 -3 47 177V539H132V185Q132 76 218 76Q277 76 319 112Q380 167 380 233V539H465Z" />
<glyph unicode="v" d="M208 4L34 539H126L256 106L387 539H479L305 4H208Z" />
<glyph unicode="w" d="M256 442L185 4H104L20 539H101L149 152L210 539H301L362 152L410 539H491L407 4H326L256 442Z" />
<glyph unicode="x" d="M304 287L475 4H374L256 220L139 4H37L207 287L56 539H152L256 352L360 539H455L304 287Z" />
<glyph unicode="y" d="M262 201L385 539H480L227 -122H135L220 91L33 539H129L262 201Z" />
<glyph unicode="z" d="M59 11V88L342 452H69V531H450V458L164 90H452V11H59Z" />
<glyph unicode="{" d="M472 812Q359 776 362 701V499Q362 408 285 389Q363 371 362 279V77Q359 2 472 -34L450 -82Q286 -43 290 73V270Q288 354 198 363V416Q289 423 290 508V705Q286 822 450 860L472 812Z" />
<glyph unicode="|" d="M220 -82V860H292V-82H220Z" />
<glyph unicode="}" d="M41 812L63 860Q227 822 223 705V508Q224 423 315 416V363Q225 355 223 270V73Q226 -44 63 -82L41 -34Q154 2 151 77V279Q150 371 228 389Q151 408 151 499V701Q154 776 41 812Z" />
<glyph unicode="~" d="M83 658L51 682Q108 781 177 781Q200 781 228 770L317 734Q335 727 354 727Q392 727 430 770L462 745Q405 647 336 647Q312 647 285 658L196 694Q177 701 158 701Q120 701 83 658Z" />
<glyph unicode="&#xa7;" horiz-adv-x="1024" d="M430 540Q305 599 305 667Q305 721 350 762Q410 815 521 815Q720 815 755 631H661Q644 736 522 736Q395 736 395 667Q395 617 584 560Q753 508 753 408Q753 341 689 298Q660 279 636 273Q764 220 764 130Q764 62
709 16Q646 -37 528 -37Q302 -37 260 171H360Q383 42 535 42Q617 42 654 82Q673 102 673 129Q673 157 652 174Q622 199 493 242Q367 283 330 317Q292 351 292 403Q292 497 430 540ZM530 499Q381 492 381 410Q381 386 396 374Q431 346 535 311Q664 317 664 404Q664
432 647 446Q616 470 530 499Z" />
<glyph unicode="&#xa8;" horiz-adv-x="1024" d="M451 901V807H357V901H451ZM666 901V807H572V901H666Z" />
<glyph unicode="&#xb0;" horiz-adv-x="1024" d="M197 860Q262 860 308 809Q348 765 348 707Q348 638 297 593Q253 553 195 553Q126 553 81 604Q41 648 41 708Q41 774 92 820Q135 860 197 860ZM193 800Q153 800 125 769Q101 742 101 707Q101 665 132 637Q159 613
195 613Q236 613 264 644Q288 671 288 707Q288 748 257 776Q231 800 193 800Z" />
<glyph unicode="&#xb1;" horiz-adv-x="1024" d="M476 230V485H170V557H476V810H548V557H854V485H548V230H476ZM170 73V145H854V73H170Z" />
<glyph unicode="&#xb2;" horiz-adv-x="1024" />
<glyph unicode="&#xb3;" horiz-adv-x="1024" />
<glyph unicode="&#xb4;" horiz-adv-x="1024" d="M375 793L605 901L650 827L394 751L375 793Z" />
<glyph unicode="&#xb5;" horiz-adv-x="1024" />
<glyph unicode="&#xb6;" horiz-adv-x="1024" d="M775 833V759H725V-54H649V759H546V-54H470V366Q381 377 330 416Q261 469 261 602Q261 708 332 774Q395 833 509 833H775Z" />
<glyph unicode="&#xd7;" horiz-adv-x="1024" d="M564 389L822 131L771 79L512 338L254 79L202 131L461 389L202 648L254 699L512 441L771 699L822 648L564 389Z" />
<glyph unicode="&#xf7;" horiz-adv-x="1024" d="M170 353V425H854V353H170ZM512 663Q540 663 560 641Q577 622 577 597Q577 531 511 531Q445 531 445 598Q445 663 512 663ZM512 247Q540 247 560 225Q577 206 577 181Q577 115 511 115Q445 115 445 182Q445 247 512 247Z" />
<glyph unicode="&#x2018;" horiz-adv-x="1024" d="M930 860L956 822Q889 780 889 743Q889 735 894 735Q895 735 898 736Q900 737 904 737Q969 737 969 672Q969 608 902 608Q829 608 829 697Q829 793 930 860Z" />
<glyph unicode="&#x2019;" horiz-adv-x="1024" d="M93 609L67 646Q134 689 134 726Q134 733 129 733Q128 733 124 732Q122 731 119 731Q54 731 54 795Q54 860 121 860Q194 860 194 772Q194 676 93 609Z" />
<glyph unicode="&#x201c;" horiz-adv-x="1024" d="M931 860L957 822Q889 779 889 742Q889 735 894 735Q895 735 899 736Q901 737 904 737Q970 737 970 672Q970 608 902 608Q829 608 829 696Q829 792 931 860ZM739 860L766 822Q698 778 698 742Q698 735 703 735Q703
735 708 736Q709 737 713 737Q779 737 779 672Q779 608 711 608Q638 608 638 696Q638 793 739 860Z" />
<glyph unicode="&#x201d;" horiz-adv-x="1024" d="M93 609L67 646Q134 689 134 726Q134 733 129 733Q128 733 122 732Q120 731 117 731Q90 731 70 752Q54 771 54 796Q54 860 121 860Q194 860 194 772Q194 676 93 609ZM283 609L257 646Q324 689 324 726Q324 733
319 733Q318 733 314 732Q312 731 309 731Q244 731 244 795Q244 860 311 860Q384 860 384 772Q384 676 283 609Z" />
</font>
</defs>
</svg>
