<svg xmlns="http://www.w3.org/2000/svg" viewBox="0 0 500 500"><path class="st0" d="M224.7,278.7c-5.5-3.8-15.9-5.7-30.9-5.7h-22.6v49.5h21.7c14.6,0,25-1.8,31.1-5.5l-0.1,0.1 c6.2-3.7,9.2-8.8,9.2-18.4C233.1,289.1,230.2,282.5,224.7,278.7z"/><path class="st0" d="M214.9,227.3c5.6-3.4,8.5-8.9,8.5-17.4s-2.6-14.5-7.9-18c-5.3-3.5-15.6-5.2-31-5.2h-13.3v45.6h12.3 C198.8,232.3,209.3,230.7,214.9,227.3z"/><path class="st0" d="M398.1,0H101.9C45.6,0,0,45.6,0,101.9v296.2C0,454.4,45.6,500,101.9,500h296.2c56.3,0,101.9-45.6,101.9-101.9 V101.9C500,45.6,454.4,0,398.1,0z M332.6,136.4h50v151.5h-50V136.4z M284.1,330.7c-5,9.2-12.6,16.6-21.9,21.4 c-7.7,4.1-17.2,7.1-28.6,8.9c-11.4,1.7-30,2.6-55.8,2.6h-64.2V136.4h62.3c25.6,0,43.5,0.7,53.7,2.4c10.2,1.7,18.9,4.6,26.2,8.6 c8,4.3,14.7,10.7,19.2,18.6c4.5,8.3,6.8,17.6,6.6,27.1c0,12.9-3.2,23-9.8,30.7c-6.6,7.7-17,13.4-31.4,17.3 c16.1,1.2,28.7,6.9,37.8,17c9.1,10.1,13.6,23.6,13.6,40.5C291.8,310.8,289.2,321.5,284.1,330.7z M386.4,334.9 c0,15.9-12.9,28.8-28.8,28.8c-15.9,0-28.8-12.9-28.8-28.8c0-15.9,12.9-28.8,28.8-28.8C373.5,306.1,386.4,319,386.4,334.9 C386.4,334.9,386.4,334.9,386.4,334.9z"/></svg>
