<svg xmlns="http://www.w3.org/2000/svg" viewBox="0 0 48.3 42.8"><path d="M24.1,30.2c-2.5,0-4.7-1.4-5.7-3.1c-0.5-0.7-1.6-1-1.6,0v4.5c0,1.8-0.7,3.4-2.1,4.7c-1.4,1.3-3.1,1.9-5,1.9 c-1.9,0-3.6-0.6-5-1.9c-1.4-1.3-2.1-2.9-2.1-4.7v-25C2.5,5.3,3,4,3.8,2.9c0.9-1.2,2-2,3.4-2.5C8,0.1,8.8,0,9.6,0 c2.2,0,4,0.8,5.5,2.4c0.8,0.8,1.2,1.2,1.3,1.3c0,0,5.8,6.6,5.9,6.7c0.2,0.1,0.6,1,1.8,1s1.7-0.9,1.8-1c0.2-0.1,5.9-6.7,5.9-6.7 c0,0,0.5-0.4,1.3-1.3C34.7,0.8,36.5,0,38.7,0c0.8,0,1.6,0.1,2.4,0.4c1.4,0.5,2.5,1.3,3.3,2.5c0.9,1.1,1.3,2.4,1.3,3.8v25 c0,1.8-0.7,3.4-2.1,4.7c-1.4,1.3-3.1,1.9-5,1.9c-1.9,0-3.6-0.6-5-1.9c-1.4-1.3-2.1-2.9-2.1-4.7v-4.5c-0.1-1.2-1.3-0.5-1.7,0 C28.7,29,26.6,30.2,24.1,30.2z"/></svg>
