<svg xmlns="http://www.w3.org/2000/svg" x="0px"	 y="0px" viewBox="0 0 448 512" style="enable-background:new 0 0 448 512;" xml:space="preserve"><!-- Font Awesome Free 5.15.3 by @fontawesome - https://fontawesome.com License - https://fontawesome.com/license/free (Icons: CC BY 4.0, Fonts: SIL OFL 1.1, Code: MIT License) --><path d="M149.3,380.6c0,27.6-22.3,49.9-49.9,49.9s-49.9-22.3-49.9-49.9s22.3-49.9,49.9-49.9S149.3,353.1,149.3,380.6L149.3,380.6z M286.1,417.4c-6.5-120.4-103-217-223.5-223.5c-7.1-0.4-13.1,5.3-13.1,12.5v37.4c0,6.6,5.1,12.1,11.6,12.5	c87.1,5.7,157,75.3,162.6,162.6c0.4,6.5,5.9,11.6,12.5,11.6h37.4C280.8,430.5,286.5,424.5,286.1,417.4L286.1,417.4z M398.5,417.6 C392,235.5,245.4,88.1,62.4,81.5c-7-0.3-12.9,5.4-12.9,12.5v37.4c0,6.7,5.3,12.2,12,12.5C210.5,150,330,269.6,336.1,418.5 c0.3,6.7,5.7,12,12.5,12H386C393.1,430.5,398.7,424.7,398.5,417.6z"/></svg>
