<svg xmlns="http://www.w3.org/2000/svg" viewBox="0 0 497.8 497.8"><path d="M364.7,310.8c-21.9,0-42,7.6-57.8,20.2l-99.1-61.9c2.9-13.3,2.9-27,0-40.3l99.1-61.9c15.9,12.6,36,20.2,57.8,20.2 c51.3,0,92.8-41.6,92.8-92.8S415.9,1.4,364.7,1.4s-92.8,41.6-92.8,92.8c0,6.9,0.8,13.7,2.2,20.2L175,176.3 c-15.9-12.6-36-20.2-57.8-20.2c-51.3,0-92.8,41.6-92.8,92.8s41.6,92.8,92.8,92.8c21.9,0,42-7.6,57.8-20.2l99.1,61.9 c-1.5,6.6-2.2,13.4-2.2,20.2c0,51.3,41.6,92.8,92.8,92.8s92.8-41.6,92.8-92.8S415.9,310.8,364.7,310.8z"/></svg>
