<svg xmlns="http://www.w3.org/2000/svg" viewBox="0 0 512 512"><!-- Font Awesome Free 5.15.3 by @fontawesome - https://fontawesome.com License - https://fontawesome.com/license/free (Icons: CC BY 4.0, Fonts: SIL OFL 1.1, Code: MIT License) --><path d="M20,272.4V84.3C20,59.8,39.8,40,64.3,40h188.2c11.7,0,23,4.7,31.3,13L479,248.3c17.3,17.3,17.3,45.3,0,62.6L290.9,499 c-17.3,17.3-45.3,17.3-62.6,0L33,303.7C24.7,295.4,20,284.2,20,272.4z M123.3,99C98.8,99,79,118.8,79,143.3s19.8,44.3,44.2,44.3	s44.3-19.8,44.3-44.3S147.7,99,123.3,99z"/></svg>
